<svg xmlns="http://www.w3.org/2000/svg" xmlns:xlink="http://www.w3.org/1999/xlink" display="none"><symbol xmlns="http://www.w3.org/2000/svg" id="control" viewBox="0 0 54 14"><g fill="none" fill-rule="evenodd" transform="translate(1 1)"><circle cx="6" cy="6" r="6" fill="#FF5F56" stroke="#E0443E" stroke-width=".5"/><circle cx="26" cy="6" r="6" fill="#FFBD2E" stroke="#DEA123" stroke-width=".5"/><circle cx="46" cy="6" r="6" fill="#27C93F" stroke="#1AAB29" stroke-width=".5"/></g></symbol><symbol xmlns="http://www.w3.org/2000/svg" id="box" fill="none" stroke="currentColor" stroke-linecap="round" stroke-linejoin="round" viewBox="0 0 24 24"><path d="M21 16V8a2 2 0 0 0-1-1.73l-7-4a2 2 0 0 0-2 0l-7 4A2 2 0 0 0 3 8v8a2 2 0 0 0 1 1.73l7 4a2 2 0 0 0 2 0l7-4A2 2 0 0 0 21 16z"/><polyline points="3.27 6.96 12 12.01 20.73 6.96"/><line x1="12" x2="12" y1="22.08" y2="12"/></symbol><symbol xmlns="http://www.w3.org/2000/svg" id="home" fill="none" stroke="currentColor" stroke-linecap="round" stroke-linejoin="round" viewBox="0 0 24 24"><path d="M3 9l9-7 9 7v11a2 2 0 0 1-2 2H5a2 2 0 0 1-2-2z"/><polyline points="9 22 9 12 15 12 15 22"/></symbol><symbol xmlns="http://www.w3.org/2000/svg" id="user" fill="none" stroke="currentColor" stroke-linecap="round" stroke-linejoin="round" viewBox="0 0 24 24"><path d="M20 21v-2a4 4 0 0 0-4-4H8a4 4 0 0 0-4 4v2"/><circle cx="12" cy="7" r="4"/></symbol><symbol xmlns="http://www.w3.org/2000/svg" id="file-text" fill="none" stroke="currentColor" stroke-linecap="round" stroke-linejoin="round" viewBox="0 0 24 24"><path d="M14 2H6a2 2 0 0 0-2 2v16a2 2 0 0 0 2 2h12a2 2 0 0 0 2-2V8z"/><polyline points="14 2 14 8 20 8"/><line x1="16" x2="8" y1="13" y2="13"/><line x1="16" x2="8" y1="17" y2="17"/><polyline points="10 9 9 9 8 9"/></symbol><symbol xmlns="http://www.w3.org/2000/svg" id="link" fill="none" stroke="currentColor" stroke-linecap="round" stroke-linejoin="round" stroke-width="2" viewBox="0 0 24 24"><path d="M10 13a5 5 0 0 0 7.54.54l3-3a5 5 0 0 0-7.07-7.07l-1.72 1.71"/><path d="M14 11a5 5 0 0 0-7.54-.54l-3 3a5 5 0 0 0 7.07 7.07l1.71-1.71"/></symbol><symbol xmlns="http://www.w3.org/2000/svg" id="x" fill="none" stroke="currentColor" stroke-linecap="round" stroke-linejoin="round" viewBox="0 0 24 24"><line x1="18" x2="6" y1="6" y2="18"/><line x1="6" x2="18" y1="6" y2="18"/></symbol><symbol xmlns="http://www.w3.org/2000/svg" id="smile" fill="none" stroke="currentColor" stroke-linecap="round" stroke-linejoin="round" viewBox="0 0 24 24"><circle cx="12" cy="12" r="10"/><path d="M8 14s1.5 2 4 2 4-2 4-2"/><line x1="9" x2="9.01" y1="9" y2="9"/><line x1="15" x2="15.01" y1="9" y2="9"/></symbol><symbol xmlns="http://www.w3.org/2000/svg" id="message-square" fill="none" stroke="currentColor" stroke-linecap="round" stroke-linejoin="round" viewBox="0 0 24 24"><path d="M21 15a2 2 0 0 1-2 2H7l-4 4V5a2 2 0 0 1 2-2h14a2 2 0 0 1 2 2z"/></symbol></svg>