<svg xmlns="http://www.w3.org/2000/svg" xmlns:xlink="http://www.w3.org/1999/xlink" display="none">
  <symbol id="control" xmlns="http://www.w3.org/2000/svg" viewBox="0 0 54 14">
    <g fill="none" fill-rule="evenodd" transform="translate(1 1)">
      <circle cx="6" cy="6" r="6" fill="#FF5F56" stroke="#E0443E" stroke-width=".5"/>
      <circle cx="26" cy="6" r="6" fill="#FFBD2E" stroke="#DEA123" stroke-width=".5"/>
      <circle cx="46" cy="6" r="6" fill="#27C93F" stroke="#1AAB29" stroke-width=".5"/>
    </g>
  </symbol>
  <symbol id="box" xmlns="http://www.w3.org/2000/svg" fill="none" stroke="currentColor" stroke-linecap="round" stroke-linejoin="round" viewBox="0 0 24 24">
    <path d="M21 16V8a2 2 0 0 0-1-1.73l-7-4a2 2 0 0 0-2 0l-7 4A2 2 0 0 0 3 8v8a2 2 0 0 0 1 1.73l7 4a2 2 0 0 0 2 0l7-4A2 2 0 0 0 21 16z"/>
    <polyline points="3.27 6.96 12 12.01 20.73 6.96"/>
    <line x1="12" x2="12" y1="22.08" y2="12"/>
  </symbol>
  <symbol id="home" xmlns="http://www.w3.org/2000/svg" fill="none" stroke="currentColor" stroke-linecap="round" stroke-linejoin="round" viewBox="0 0 24 24">
    <path d="M3 9l9-7 9 7v11a2 2 0 0 1-2 2H5a2 2 0 0 1-2-2z"/>
    <polyline points="9 22 9 12 15 12 15 22"/>
  </symbol>
  <symbol id="user" xmlns="http://www.w3.org/2000/svg" fill="none" stroke="currentColor" stroke-linecap="round" stroke-linejoin="round" viewBox="0 0 24 24">
    <path d="M20 21v-2a4 4 0 0 0-4-4H8a4 4 0 0 0-4 4v2"/>
    <circle cx="12" cy="7" r="4"/>
  </symbol>
  <symbol id="file-text" xmlns="http://www.w3.org/2000/svg" fill="none" stroke="currentColor" stroke-linecap="round" stroke-linejoin="round" viewBox="0 0 24 24">
    <path d="M14 2H6a2 2 0 0 0-2 2v16a2 2 0 0 0 2 2h12a2 2 0 0 0 2-2V8z"/>
    <polyline points="14 2 14 8 20 8"/>
    <line x1="16" x2="8" y1="13" y2="13"/>
    <line x1="16" x2="8" y1="17" y2="17"/>
    <polyline points="10 9 9 9 8 9"/>
  </symbol>
  <symbol id="link" xmlns="http://www.w3.org/2000/svg" fill="none" stroke="currentColor" stroke-linecap="round" stroke-linejoin="round" stroke-width="2" viewBox="0 0 24 24">
    <path d="M10 13a5 5 0 0 0 7.54.54l3-3a5 5 0 0 0-7.07-7.07l-1.72 1.71"/>
    <path d="M14 11a5 5 0 0 0-7.54-.54l-3 3a5 5 0 0 0 7.07 7.07l1.71-1.71"/>
  </symbol>
  <symbol id="x" xmlns="http://www.w3.org/2000/svg" viewBox="0 0 24 24" fill="none" stroke="currentColor" stroke-linecap="round" stroke-linejoin="round">
    <line x1="18" y1="6" x2="6" y2="18"/>
    <line x1="6" y1="6" x2="18" y2="18"/>
  </symbol>
  <symbol id="smile" xmlns="http://www.w3.org/2000/svg" viewBox="0 0 24 24" fill="none" stroke="currentColor" stroke-linecap="round" stroke-linejoin="round">
    <circle cx="12" cy="12" r="10"/>
    <path d="M8 14s1.5 2 4 2 4-2 4-2"/>
    <line x1="9" y1="9" x2="9.01" y2="9"/>
    <line x1="15" y1="9" x2="15.01" y2="9"/>
  </symbol>
  <symbol id="message-square" xmlns="http://www.w3.org/2000/svg" viewBox="0 0 24 24" fill="none" stroke="currentColor" stroke-linecap="round" stroke-linejoin="round">
    <path d="M21 15a2 2 0 0 1-2 2H7l-4 4V5a2 2 0 0 1 2-2h14a2 2 0 0 1 2 2z"/>
  </symbol>
  <symbol id="github" xmlns="http://www.w3.org/2000/svg" viewBox="0 0 24 24" fill="none" stroke="currentColor" stroke-width="1.5" stroke-linecap="round" stroke-linejoin="round">
    <path d="M9 19c-5 1.5-5-2.5-7-3m14 6v-3.87a3.37 3.37 0 0 0-.94-2.61c3.14-.35 6.44-1.54 6.44-7A5.44 5.44 0 0 0 20 4.77 5.07 5.07 0 0 0 19.91 1S18.73.65 16 2.48a13.38 13.38 0 0 0-7 0C6.27.65 5.09 1 5.09 1A5.07 5.07 0 0 0 5 4.77a5.44 5.44 0 0 0-1.5 3.78c0 5.42 3.3 6.61 6.44 7A3.37 3.37 0 0 0 9 18.13V22"/>
  </symbol>
  <symbol id="logo-light" fill="none" viewBox="0 0 512 512" xmlns="http://www.w3.org/2000/svg">
    <path d="m12 12h488v488h-488z" fill="#fff"/>
    <path d="m147.243 267.341c37.329 0 60.341-27.102 60.341-72.614 0-45-23.012-71.591-60.341-71.591-37.33 0-60.341 26.591-60.341 71.591 0 45.512 23.011 72.614 60.341 72.614zm0-21.989c-19.943 0-32.727-17.386-32.727-50.625 0-32.216 12.784-49.602 32.727-49.602s32.727 17.386 32.727 49.602c0 33.239-12.784 50.625-32.727 50.625zm16.811 141.648h29.148l180-261.818h-29.148zm226.119-139.091h-26.08c-.511 9.716-14.318 23.523-33.75 23.523v21.477c17.386 0 28.636-8.182 31.705-12.273h1.534v106.364h26.591z" fill="#24292e"/>
    <path d="m12 12h488v488h-488z" stroke="#24292e" stroke-width="24"/>
  </symbol>
</svg>
